<svg xmlns="http://www.w3.org/2000/svg" width="1100" height="700" viewBox="0 0 1100 700">
<style>text{font-family:Arial,Helvetica,sans-serif}.title{font-size:26px;font-weight:700}.label{font-size:18px}.tick{font-size:14px}.legend{font-size:15px}</style>
<rect width="100%" height="100%" fill="white"/>
<text x="550.0" y="38" text-anchor="middle" class="title">PSNR vs Training Views (Raw sensitivity vs Uniform)</text>
<line x1="90" y1="615" x2="840" y2="615" stroke="#222" stroke-width="1.5"/>
<line x1="90" y1="70" x2="90" y2="615" stroke="#222" stroke-width="1.5"/>
<line x1="90.0" y1="70" x2="90.0" y2="615" stroke="#d0d0d0" stroke-opacity="0.55"/>
<text x="90.0" y="640" text-anchor="middle" class="tick">4</text>
<line x1="183.8" y1="70" x2="183.8" y2="615" stroke="#d0d0d0" stroke-opacity="0.55"/>
<text x="183.8" y="640" text-anchor="middle" class="tick">6</text>
<line x1="277.5" y1="70" x2="277.5" y2="615" stroke="#d0d0d0" stroke-opacity="0.55"/>
<text x="277.5" y="640" text-anchor="middle" class="tick">8</text>
<line x1="371.2" y1="70" x2="371.2" y2="615" stroke="#d0d0d0" stroke-opacity="0.55"/>
<text x="371.2" y="640" text-anchor="middle" class="tick">10</text>
<line x1="465.0" y1="70" x2="465.0" y2="615" stroke="#d0d0d0" stroke-opacity="0.55"/>
<text x="465.0" y="640" text-anchor="middle" class="tick">12</text>
<line x1="558.8" y1="70" x2="558.8" y2="615" stroke="#d0d0d0" stroke-opacity="0.55"/>
<text x="558.8" y="640" text-anchor="middle" class="tick">14</text>
<line x1="652.5" y1="70" x2="652.5" y2="615" stroke="#d0d0d0" stroke-opacity="0.55"/>
<text x="652.5" y="640" text-anchor="middle" class="tick">16</text>
<line x1="746.2" y1="70" x2="746.2" y2="615" stroke="#d0d0d0" stroke-opacity="0.55"/>
<text x="746.2" y="640" text-anchor="middle" class="tick">18</text>
<line x1="840.0" y1="70" x2="840.0" y2="615" stroke="#d0d0d0" stroke-opacity="0.55"/>
<text x="840.0" y="640" text-anchor="middle" class="tick">20</text>
<line x1="90" y1="576.9" x2="840" y2="576.9" stroke="#d0d0d0" stroke-opacity="0.55"/>
<text x="78" y="581.9" text-anchor="end" class="tick">15</text>
<line x1="90" y1="500.6" x2="840" y2="500.6" stroke="#d0d0d0" stroke-opacity="0.55"/>
<text x="78" y="505.6" text-anchor="end" class="tick">16</text>
<line x1="90" y1="424.4" x2="840" y2="424.4" stroke="#d0d0d0" stroke-opacity="0.55"/>
<text x="78" y="429.4" text-anchor="end" class="tick">17</text>
<line x1="90" y1="348.1" x2="840" y2="348.1" stroke="#d0d0d0" stroke-opacity="0.55"/>
<text x="78" y="353.1" text-anchor="end" class="tick">18</text>
<line x1="90" y1="271.8" x2="840" y2="271.8" stroke="#d0d0d0" stroke-opacity="0.55"/>
<text x="78" y="276.8" text-anchor="end" class="tick">19</text>
<line x1="90" y1="195.5" x2="840" y2="195.5" stroke="#d0d0d0" stroke-opacity="0.55"/>
<text x="78" y="200.5" text-anchor="end" class="tick">20</text>
<line x1="90" y1="119.2" x2="840" y2="119.2" stroke="#d0d0d0" stroke-opacity="0.55"/>
<text x="78" y="124.2" text-anchor="end" class="tick">21</text>
<text x="465.0" y="675" text-anchor="middle" class="label">Training views</text>
<text x="25" y="342.5" transform="rotate(-90 25 342.5)" text-anchor="middle" class="label">PSNR (dB)</text>
<polygon points="90.0,410.5 136.9,365.9 183.8,342.0 230.6,311.3 277.5,287.3 324.4,272.8 371.2,262.9 418.1,244.1 465.0,220.2 511.9,202.0 558.8,179.2 605.6,163.7 652.5,134.0 699.4,115.2 746.2,101.2 793.1,106.1 840.0,143.4 840.0,409.5 793.1,335.5 746.2,343.5 699.4,357.8 652.5,370.8 605.6,392.8 558.8,402.4 511.9,429.8 465.0,443.2 418.1,471.6 371.2,493.4 324.4,511.4 277.5,520.8 230.6,536.6 183.8,544.1 136.9,562.7 90.0,590.2" fill="rgba(214,39,40,0.14)" stroke="none"/>
<polyline points="90.0,500.4 136.9,464.3 183.8,443.0 230.6,423.9 277.5,404.1 324.4,392.1 371.2,378.1 418.1,357.8 465.0,331.7 511.9,315.9 558.8,290.8 605.6,278.2 652.5,252.4 699.4,236.5 746.2,222.3 793.1,220.8 840.0,276.4" fill="none" stroke="#d62728" stroke-width="3.2"/>
<circle cx="90.0" cy="500.4" r="4.5" fill="#d62728" stroke="white" stroke-width="1"/>
<circle cx="136.9" cy="464.3" r="4.5" fill="#d62728" stroke="white" stroke-width="1"/>
<circle cx="183.8" cy="443.0" r="4.5" fill="#d62728" stroke="white" stroke-width="1"/>
<circle cx="230.6" cy="423.9" r="4.5" fill="#d62728" stroke="white" stroke-width="1"/>
<circle cx="277.5" cy="404.1" r="4.5" fill="#d62728" stroke="white" stroke-width="1"/>
<circle cx="324.4" cy="392.1" r="4.5" fill="#d62728" stroke="white" stroke-width="1"/>
<circle cx="371.2" cy="378.1" r="4.5" fill="#d62728" stroke="white" stroke-width="1"/>
<circle cx="418.1" cy="357.8" r="4.5" fill="#d62728" stroke="white" stroke-width="1"/>
<circle cx="465.0" cy="331.7" r="4.5" fill="#d62728" stroke="white" stroke-width="1"/>
<circle cx="511.9" cy="315.9" r="4.5" fill="#d62728" stroke="white" stroke-width="1"/>
<circle cx="558.8" cy="290.8" r="4.5" fill="#d62728" stroke="white" stroke-width="1"/>
<circle cx="605.6" cy="278.2" r="4.5" fill="#d62728" stroke="white" stroke-width="1"/>
<circle cx="652.5" cy="252.4" r="4.5" fill="#d62728" stroke="white" stroke-width="1"/>
<circle cx="699.4" cy="236.5" r="4.5" fill="#d62728" stroke="white" stroke-width="1"/>
<circle cx="746.2" cy="222.3" r="4.5" fill="#d62728" stroke="white" stroke-width="1"/>
<circle cx="793.1" cy="220.8" r="4.5" fill="#d62728" stroke="white" stroke-width="1"/>
<circle cx="840.0" cy="276.4" r="4.5" fill="#d62728" stroke="white" stroke-width="1"/>
<line x1="875" y1="90" x2="903" y2="90" stroke="#d62728" stroke-width="3.2"/>
<circle cx="889" cy="90" r="4.5" fill="#d62728" stroke="white" stroke-width="1"/>
<text x="913" y="95" class="legend">Raw sensitivity</text>
<polygon points="90.0,410.1 136.9,367.9 183.8,342.5 230.6,320.9 277.5,304.8 324.4,294.1 371.2,286.4 418.1,272.9 465.0,253.7 511.9,244.0 558.8,234.2 605.6,218.6 652.5,209.6 699.4,199.6 746.2,184.5 793.1,179.9 840.0,232.4 840.0,406.2 793.1,332.3 746.2,342.4 699.4,356.7 652.5,370.7 605.6,380.5 558.8,400.9 511.9,418.0 465.0,418.2 418.1,439.5 371.2,458.6 324.4,479.3 277.5,477.3 230.6,494.6 183.8,520.4 136.9,560.8 90.0,590.0" fill="rgba(126,87,194,0.14)" stroke="none"/>
<polyline points="90.0,500.0 136.9,464.4 183.8,431.4 230.6,407.7 277.5,391.1 324.4,386.7 371.2,372.5 418.1,356.2 465.0,335.9 511.9,331.0 558.8,317.6 605.6,299.6 652.5,290.2 699.4,278.2 746.2,263.4 793.1,256.1 840.0,319.3" fill="none" stroke="#7e57c2" stroke-width="3.2"/>
<circle cx="90.0" cy="500.0" r="4.5" fill="#7e57c2" stroke="white" stroke-width="1"/>
<circle cx="136.9" cy="464.4" r="4.5" fill="#7e57c2" stroke="white" stroke-width="1"/>
<circle cx="183.8" cy="431.4" r="4.5" fill="#7e57c2" stroke="white" stroke-width="1"/>
<circle cx="230.6" cy="407.7" r="4.5" fill="#7e57c2" stroke="white" stroke-width="1"/>
<circle cx="277.5" cy="391.1" r="4.5" fill="#7e57c2" stroke="white" stroke-width="1"/>
<circle cx="324.4" cy="386.7" r="4.5" fill="#7e57c2" stroke="white" stroke-width="1"/>
<circle cx="371.2" cy="372.5" r="4.5" fill="#7e57c2" stroke="white" stroke-width="1"/>
<circle cx="418.1" cy="356.2" r="4.5" fill="#7e57c2" stroke="white" stroke-width="1"/>
<circle cx="465.0" cy="335.9" r="4.5" fill="#7e57c2" stroke="white" stroke-width="1"/>
<circle cx="511.9" cy="331.0" r="4.5" fill="#7e57c2" stroke="white" stroke-width="1"/>
<circle cx="558.8" cy="317.6" r="4.5" fill="#7e57c2" stroke="white" stroke-width="1"/>
<circle cx="605.6" cy="299.6" r="4.5" fill="#7e57c2" stroke="white" stroke-width="1"/>
<circle cx="652.5" cy="290.2" r="4.5" fill="#7e57c2" stroke="white" stroke-width="1"/>
<circle cx="699.4" cy="278.2" r="4.5" fill="#7e57c2" stroke="white" stroke-width="1"/>
<circle cx="746.2" cy="263.4" r="4.5" fill="#7e57c2" stroke="white" stroke-width="1"/>
<circle cx="793.1" cy="256.1" r="4.5" fill="#7e57c2" stroke="white" stroke-width="1"/>
<circle cx="840.0" cy="319.3" r="4.5" fill="#7e57c2" stroke="white" stroke-width="1"/>
<line x1="875" y1="118" x2="903" y2="118" stroke="#7e57c2" stroke-width="3.2"/>
<circle cx="889" cy="118" r="4.5" fill="#7e57c2" stroke="white" stroke-width="1"/>
<text x="913" y="123" class="legend">Uniform</text>
<line x1="90" y1="152.1" x2="840" y2="152.1" stroke="#111111" stroke-width="1.2" stroke-dasharray="4 4" stroke-opacity="0.45"/>
<text x="840.0" y="159.1" text-anchor="middle" font-size="25" font-weight="700" fill="#111111" stroke="white" stroke-width="0.6">×</text>
<text x="889" y="154" text-anchor="middle" font-size="22" font-weight="700" fill="#111111">×</text>
<text x="913" y="151" class="legend">FisherRF avg. (20 views)</text>
<line x1="90" y1="94.8" x2="840" y2="94.8" stroke="#e91e63" stroke-width="1.2" stroke-dasharray="4 4" stroke-opacity="0.45"/>
<text x="840.0" y="101.8" text-anchor="middle" font-size="25" font-weight="700" fill="#e91e63" stroke="white" stroke-width="0.6">✚</text>
<text x="889" y="182" text-anchor="middle" font-size="22" font-weight="700" fill="#e91e63">✚</text>
<text x="913" y="179" class="legend">POP-GS avg. (20 views)</text>
<text x="835" y="605" text-anchor="end" class="tick" fill="#555">Shading: 95% CI across scenes</text>
<text x="835" y="585" text-anchor="end" class="tick" fill="#555">FisherRF / POP-GS are Mip-NeRF360 averages</text>
</svg>
